<?xml version="1.0" encoding="UTF-8"?>
<svg width="23px" height="24px" viewBox="0 0 23 24" version="1.1" xmlns="http://www.w3.org/2000/svg" xmlns:xlink="http://www.w3.org/1999/xlink">
    <!-- Generator: Sketch 47.1 (45422) - http://www.bohemiancoding.com/sketch -->
    <title>icn-github</title>
    <desc>Created with Sketch.</desc>
    <defs></defs>
    <g id="Symbols" stroke="none" stroke-width="1" fill="none" fill-rule="evenodd">
        <g id="icn-github" fill="#B0B0B0">
            <path d="M11.498941,0 C5.14939071,0 0,5.04946255 0,11.2787255 C0,16.2617204 3.29479112,20.4886461 7.86457534,21.9800135 C8.43994598,22.0838691 8.64962092,21.7356065 8.64962092,21.4365021 C8.64962092,21.1692469 8.63973725,20.4595665 8.63408944,19.5186341 C5.43531109,20.1999273 4.7603978,18.0064956 4.7603978,18.0064956 C4.23726941,16.7034532 3.48328678,16.3565752 3.48328678,16.3565752 C2.43914792,15.6572804 3.56235612,15.6711278 3.56235612,15.6711278 C4.71662728,15.7507505 5.32376684,16.8336189 5.32376684,16.8336189 C6.34955032,18.5569307 8.01565426,18.0591158 8.67080021,17.7703971 C8.77528469,17.0420227 9.07250069,16.5449002 9.40077964,16.2631051 C6.84726357,15.9785406 4.16243592,15.0106058 4.16243592,10.6888253 C4.16243592,9.45778945 4.61073084,8.45038947 5.34635808,7.66247114 C5.22775407,7.37721424 4.83311336,6.2299553 5.45931428,4.67765926 C5.45931428,4.67765926 6.42438381,4.37440071 8.62138187,5.83391903 C9.53844501,5.58328068 10.5225759,5.45865388 11.500353,5.45380728 C12.4774241,5.45865388 13.460849,5.58328068 14.3793241,5.83391903 C16.5749102,4.37440071 17.5385678,4.67765926 17.5385678,4.67765926 C18.1661807,6.2299553 17.7715399,7.37721424 17.6536419,7.66247114 C18.3906811,8.45038947 18.8354461,9.45778945 18.8354461,10.6888253 C18.8354461,15.0216837 16.1463826,15.9750788 13.5851008,16.2541043 C13.997391,16.602367 14.3652046,17.2905839 14.3652046,18.342988 C14.3652046,19.8502799 14.3510851,21.066776 14.3510851,21.4365021 C14.3510851,21.7383759 14.5586421,22.0894081 15.1417784,21.9793211 C19.7080328,20.4844918 23,16.2603357 23,11.2787255 C23,5.04946255 17.8506093,0 11.498941,0"></path>
        </g>
    </g>
</svg>