<svg width="24" height="24" viewBox="0 0 24 24" fill="none" xmlns="http://www.w3.org/2000/svg">
<path fill-rule="evenodd" clip-rule="evenodd" d="M4 0C1.79086 0 0 1.79086 0 4V20C0 22.2091 1.79086 24 4 24H20C22.2091 24 24 22.2091 24 20V4C24 1.79086 22.2091 0 20 0H4ZM8.5 6.5C8.5 7.32843 7.82843 8 7 8C6.17157 8 5.5 7.32843 5.5 6.5C5.5 5.67157 6.17157 5 7 5C7.82843 5 8.5 5.67157 8.5 6.5ZM12.8958 9.22047H10V17.75H13.0398V13.315C13.0398 12.9265 13.1071 12.5801 13.2415 12.2756C13.3856 11.9711 13.5681 11.7402 13.789 11.5827C14.0099 11.4147 14.5195 11.3307 14.75 11.3307C15.0669 11.3307 15.528 11.4514 15.7008 11.6929C15.8833 11.9344 15.9746 12.2808 15.9746 12.7323V17.75H19V13.063C19 11.7927 18.7359 10.8005 18.2076 10.0866C17.689 9.3622 16.4686 9 15.5466 9C14.3364 9 13.4528 9.60892 12.8958 10.8268V9.22047ZM5.5 9.25V17.75H8.5V9.25H5.5Z" fill="#B0B0B0"/>
</svg>
