<?xml version="1.0" encoding="UTF-8"?>
<svg width="23px" height="24px" viewBox="0 0 23 24" version="1.1" xmlns="http://www.w3.org/2000/svg" xmlns:xlink="http://www.w3.org/1999/xlink">
    <!-- Generator: Sketch 47.1 (45422) - http://www.bohemiancoding.com/sketch -->
    <title>icn-email</title>
    <desc>Created with Sketch.</desc>
    <defs></defs>
    <g id="Symbols" stroke="none" stroke-width="1" fill="none" fill-rule="evenodd">
        <g id="icn-email" fill="#B0B0B0">
            <path d="M8.17275268,12 L10.2281811,13.6936096 L10.2281811,13.6936096 C10.9668376,14.3022399 12.0331624,14.3022399 12.7718189,13.6936096 L14.8272473,12 L22.3860693,18.2282363 C22.8123026,18.5794394 22.8731266,19.2096762 22.5219235,19.6359095 C22.3319629,19.8664528 22.0488826,20 21.7501599,20 L1.24984013,20 C0.697555384,20 0.249840134,19.5522847 0.249840134,19 C0.249840134,18.7012772 0.383387292,18.418197 0.613930667,18.2282363 L0.613930667,18.2282363 L8.17275268,12 Z M0.613930667,3.77176366 L0.613930667,3.77176366 C0.383387292,3.58180303 0.249840134,3.29872277 0.249840134,3 C0.249840134,2.44771525 0.697555384,2 1.24984013,2 L1.24984013,2 L21.7501599,2 C22.0488826,2 22.3319629,2.13354716 22.5219235,2.36409053 C22.8731266,2.79032383 22.8123026,3.42056056 22.3860693,3.77176366 L22.3860693,3.77176366 L12.7718189,11.6936096 C12.0331624,12.3022399 10.9668376,12.3022399 10.2281811,11.6936096 L0.613930667,3.77176366 Z M16,11 L23,5 L23,17 L16,11 Z M7,11 L0,17 L0,5 L7,11 Z" id="icn-mail"></path>
        </g>
    </g>
</svg>